<svg xmlns="http://www.w3.org/2000/svg" xmlns:xlink="http://www.w3.org/1999/xlink" width="500" zoomAndPan="magnify" viewBox="0 0 375 374.999991" height="500" preserveAspectRatio="xMidYMid meet" version="1.0"><defs><g/><clipPath id="id1"><path d="M 153 112.148438 L 178 112.148438 L 178 196 L 153 196 Z M 153 112.148438 " clip-rule="nonzero"/></clipPath><clipPath id="id2"><path d="M 198 112.148438 L 222 112.148438 L 222 196 L 198 196 Z M 198 112.148438 " clip-rule="nonzero"/></clipPath><clipPath id="id3"><path d="M 135.148438 156 L 240 156 L 240 167 L 135.148438 167 Z M 135.148438 156 " clip-rule="nonzero"/></clipPath><clipPath id="id4"><path d="M 135.148438 207 L 240.148438 207 L 240.148438 217.148438 L 135.148438 217.148438 Z M 135.148438 207 " clip-rule="nonzero"/></clipPath></defs><rect x="-37.5" width="450" fill="#ffffff" y="-37.499999" height="449.999989" fill-opacity="1"/><rect x="-37.5" width="450" fill="#ffffff" y="-37.499999" height="449.999989" fill-opacity="1"/><rect x="-37.5" width="450" fill="#ffffff" y="-37.499999" height="449.999989" fill-opacity="1"/><rect x="-37.5" width="450" fill="#ffffff" y="-37.499999" height="449.999989" fill-opacity="1"/><path fill="#ebeff1" d="M 154.863281 113.15625 L 154.863281 183.765625 C 154.863281 189.65625 159.640625 194.433594 165.53125 194.433594 C 171.421875 194.433594 176.199219 189.65625 176.199219 183.765625 L 176.199219 113.15625 L 154.863281 113.15625 " fill-opacity="1" fill-rule="nonzero"/><g clip-path="url(#id1)"><path fill="#000000" d="M 155.863281 114.160156 L 155.863281 183.765625 C 155.863281 189.097656 160.203125 193.433594 165.53125 193.433594 C 170.863281 193.433594 175.199219 189.097656 175.199219 183.765625 L 175.199219 114.160156 Z M 165.53125 195.433594 C 159.097656 195.433594 153.863281 190.199219 153.863281 183.765625 L 153.863281 113.15625 C 153.863281 112.605469 154.3125 112.15625 154.863281 112.15625 L 176.199219 112.15625 C 176.753906 112.15625 177.199219 112.605469 177.199219 113.15625 L 177.199219 183.765625 C 177.199219 190.199219 171.964844 195.433594 165.53125 195.433594 " fill-opacity="1" fill-rule="nonzero"/></g><path fill="#8c52ff" d="M 165.53125 191.132812 C 161.46875 191.132812 158.164062 187.828125 158.164062 183.765625 L 158.164062 147.585938 L 172.902344 147.585938 L 172.902344 183.765625 C 172.902344 187.828125 169.597656 191.132812 165.53125 191.132812 " fill-opacity="1" fill-rule="nonzero"/><path fill="#ebeff1" d="M 199.089844 113.15625 L 199.089844 183.765625 C 199.089844 189.65625 203.867188 194.433594 209.757812 194.433594 C 215.648438 194.433594 220.425781 189.65625 220.425781 183.765625 L 220.425781 113.15625 L 199.089844 113.15625 " fill-opacity="1" fill-rule="nonzero"/><g clip-path="url(#id2)"><path fill="#000000" d="M 200.089844 114.160156 L 200.089844 183.765625 C 200.089844 189.097656 204.429688 193.433594 209.757812 193.433594 C 215.089844 193.433594 219.425781 189.097656 219.425781 183.765625 L 219.425781 114.160156 Z M 209.757812 195.433594 C 203.324219 195.433594 198.089844 190.199219 198.089844 183.765625 L 198.089844 113.15625 C 198.089844 112.605469 198.535156 112.15625 199.089844 112.15625 L 220.425781 112.15625 C 220.980469 112.15625 221.425781 112.605469 221.425781 113.15625 L 221.425781 183.765625 C 221.425781 190.199219 216.191406 195.433594 209.757812 195.433594 " fill-opacity="1" fill-rule="nonzero"/></g><path fill="#f14531" d="M 209.757812 191.132812 C 205.695312 191.132812 202.386719 187.828125 202.386719 183.765625 L 202.386719 147.585938 L 217.128906 147.585938 L 217.128906 183.765625 C 217.128906 187.828125 213.820312 191.132812 209.757812 191.132812 " fill-opacity="1" fill-rule="nonzero"/><path fill="#ebeff1" d="M 238.855469 165.546875 L 136.4375 165.546875 L 136.4375 157.53125 L 238.855469 157.53125 L 238.855469 165.546875 " fill-opacity="1" fill-rule="nonzero"/><g clip-path="url(#id3)"><path fill="#000000" d="M 137.4375 164.546875 L 237.855469 164.546875 L 237.855469 158.53125 L 137.4375 158.53125 Z M 238.855469 166.546875 L 136.4375 166.546875 C 135.882812 166.546875 135.433594 166.101562 135.433594 165.546875 L 135.433594 157.53125 C 135.433594 156.976562 135.882812 156.53125 136.4375 156.53125 L 238.855469 156.53125 C 239.40625 156.53125 239.855469 156.976562 239.855469 157.53125 L 239.855469 165.546875 C 239.855469 166.101562 239.40625 166.546875 238.855469 166.546875 " fill-opacity="1" fill-rule="nonzero"/></g><path fill="#ebeff1" d="M 149.042969 209.773438 L 141.027344 209.773438 L 141.027344 165.546875 L 149.042969 165.546875 L 149.042969 209.773438 " fill-opacity="1" fill-rule="nonzero"/><path fill="#000000" d="M 142.027344 208.773438 L 148.042969 208.773438 L 148.042969 166.546875 L 142.027344 166.546875 Z M 149.042969 210.773438 L 141.027344 210.773438 C 140.472656 210.773438 140.027344 210.328125 140.027344 209.773438 L 140.027344 165.546875 C 140.027344 164.996094 140.472656 164.546875 141.027344 164.546875 L 149.042969 164.546875 C 149.597656 164.546875 150.046875 164.996094 150.046875 165.546875 L 150.046875 209.773438 C 150.046875 210.328125 149.597656 210.773438 149.042969 210.773438 " fill-opacity="1" fill-rule="nonzero"/><path fill="#ebeff1" d="M 234.265625 209.773438 L 226.246094 209.773438 L 226.246094 165.546875 L 234.265625 165.546875 L 234.265625 209.773438 " fill-opacity="1" fill-rule="nonzero"/><path fill="#000000" d="M 227.246094 208.773438 L 233.265625 208.773438 L 233.265625 166.546875 L 227.246094 166.546875 Z M 234.265625 210.773438 L 226.246094 210.773438 C 225.695312 210.773438 225.246094 210.328125 225.246094 209.773438 L 225.246094 165.546875 C 225.246094 164.996094 225.695312 164.546875 226.246094 164.546875 L 234.265625 164.546875 C 234.816406 164.546875 235.265625 164.996094 235.265625 165.546875 L 235.265625 209.773438 C 235.265625 210.328125 234.816406 210.773438 234.265625 210.773438 " fill-opacity="1" fill-rule="nonzero"/><path fill="#ebeff1" d="M 239.125 216.167969 L 136.164062 216.167969 L 136.164062 208.09375 L 239.125 208.09375 L 239.125 216.167969 " fill-opacity="1" fill-rule="nonzero"/><g clip-path="url(#id4)"><path fill="#000000" d="M 137.164062 215.167969 L 238.125 215.167969 L 238.125 209.09375 L 137.164062 209.09375 Z M 239.125 217.167969 L 136.164062 217.167969 C 135.613281 217.167969 135.164062 216.71875 135.164062 216.167969 L 135.164062 208.09375 C 135.164062 207.539062 135.613281 207.09375 136.164062 207.09375 L 239.125 207.09375 C 239.679688 207.09375 240.128906 207.539062 240.128906 208.09375 L 240.128906 216.167969 C 240.128906 216.71875 239.679688 217.167969 239.125 217.167969 " fill-opacity="1" fill-rule="nonzero"/></g><g fill="#000000" fill-opacity="1"><g transform="translate(163.705197, 252.021723)"><g><path d="M 5.046875 -2.578125 L 12.34375 -2.578125 L 12.34375 0 L 2.21875 0 L 2.21875 -16.84375 L 5.046875 -16.84375 Z M 5.046875 -2.578125 "/></g></g></g><g fill="#000000" fill-opacity="1"><g transform="translate(176.552447, 252.021723)"><g><path d="M 13.09375 -3.796875 L 4.59375 -3.796875 L 2.984375 0 L 0.03125 0 L 7.453125 -16.84375 L 10.375 -16.84375 L 17.734375 0 L 14.703125 0 Z M 12 -6.328125 L 8.828125 -13.8125 L 5.65625 -6.328125 Z M 12 -6.328125 "/></g></g></g><g fill="#000000" fill-opacity="1"><g transform="translate(194.307634, 252.021723)"><g><path d="M 2.21875 -16.84375 L 9.53125 -16.84375 C 11.28125 -16.84375 12.660156 -16.46875 13.671875 -15.71875 C 14.679688 -14.976562 15.1875 -13.945312 15.1875 -12.625 C 15.1875 -11.6875 14.921875 -10.882812 14.390625 -10.21875 C 13.859375 -9.550781 13.132812 -9.101562 12.21875 -8.875 C 13.34375 -8.6875 14.222656 -8.210938 14.859375 -7.453125 C 15.503906 -6.703125 15.828125 -5.757812 15.828125 -4.625 C 15.828125 -3.175781 15.28125 -2.039062 14.1875 -1.21875 C 13.101562 -0.40625 11.609375 0 9.703125 0 L 2.21875 0 Z M 5.046875 -14.3125 L 5.046875 -9.859375 L 9.390625 -9.859375 C 10.285156 -9.859375 10.988281 -10.054688 11.5 -10.453125 C 12.007812 -10.859375 12.265625 -11.414062 12.265625 -12.125 C 12.265625 -12.832031 12.007812 -13.375 11.5 -13.75 C 11 -14.125 10.296875 -14.3125 9.390625 -14.3125 Z M 5.046875 -7.359375 L 5.046875 -2.53125 L 9.390625 -2.53125 C 10.503906 -2.53125 11.367188 -2.738281 11.984375 -3.15625 C 12.609375 -3.582031 12.921875 -4.191406 12.921875 -4.984375 C 12.921875 -5.722656 12.609375 -6.300781 11.984375 -6.71875 C 11.359375 -7.144531 10.492188 -7.359375 9.390625 -7.359375 Z M 5.046875 -7.359375 "/></g></g></g></svg>