<svg xmlns="http://www.w3.org/2000/svg" xmlns:xlink="http://www.w3.org/1999/xlink" width="559" zoomAndPan="magnify" viewBox="0 0 419.25 297.749993" height="396" preserveAspectRatio="xMidYMid meet" version="1.0"><defs><g/><clipPath id="id1"><path d="M 0 0.140625 L 418.5 0.140625 L 418.5 297.359375 L 0 297.359375 Z M 0 0.140625 " clip-rule="nonzero"/></clipPath><clipPath id="id2"><path d="M 167 78 L 268 78 L 268 180.511719 L 167 180.511719 Z M 167 78 " clip-rule="nonzero"/></clipPath><clipPath id="id3"><path d="M 166.9375 21.046875 L 289.378906 21.046875 L 289.378906 180.511719 L 166.9375 180.511719 Z M 166.9375 21.046875 " clip-rule="nonzero"/></clipPath><clipPath id="id4"><path d="M 129.21875 52 L 225 52 L 225 178 L 129.21875 178 Z M 129.21875 52 " clip-rule="nonzero"/></clipPath><clipPath id="id5"><path d="M 0 195.164062 L 418.5 195.164062 L 418.5 296.984375 L 0 296.984375 Z M 0 195.164062 " clip-rule="nonzero"/></clipPath></defs><g clip-path="url(#id1)"><path fill="#ffffff" d="M 0 0.140625 L 419.25 0.140625 L 419.25 304.097656 L 0 304.097656 Z M 0 0.140625 " fill-opacity="1" fill-rule="nonzero"/><path fill="#baf1f1" d="M 0 0.140625 L 418.5 0.140625 L 418.5 297.359375 L 0 297.359375 Z M 0 0.140625 " fill-opacity="1" fill-rule="nonzero"/><path fill="#ffffff" d="M 0 0.140625 L 418.5 0.140625 L 418.5 297.359375 L 0 297.359375 Z M 0 0.140625 " fill-opacity="1" fill-rule="nonzero"/><path fill="#baf1f1" d="M 0 0.140625 L 418.5 0.140625 L 418.5 297.359375 L 0 297.359375 Z M 0 0.140625 " fill-opacity="1" fill-rule="nonzero"/></g><g clip-path="url(#id2)"><path fill="#f288ca" d="M 267.328125 174.074219 L 250.980469 114.359375 C 250.777344 113.613281 250.097656 113.09375 249.324219 113.09375 C 249.171875 113.09375 249.019531 113.113281 248.871094 113.15625 C 248.429688 113.277344 248.058594 113.5625 247.832031 113.960938 C 247.605469 114.359375 247.546875 114.824219 247.667969 115.265625 L 264.019531 174.984375 C 264.222656 175.726562 264.902344 176.246094 265.671875 176.246094 C 265.828125 176.246094 265.976562 176.226562 266.125 176.1875 C 266.566406 176.0625 266.9375 175.777344 267.164062 175.378906 C 267.390625 174.980469 267.449219 174.515625 267.328125 174.074219 Z M 184.910156 106.714844 L 184.765625 106.71875 C 179.019531 106.875 172.609375 107.042969 171.832031 107.042969 C 171.214844 107.042969 170.644531 107.300781 170.222656 107.773438 C 169.410156 108.679688 169.160156 110.5625 169.472656 113.367188 C 169.570312 114.238281 170.300781 114.894531 171.175781 114.894531 C 171.238281 114.894531 171.300781 114.890625 171.367188 114.882812 C 171.824219 114.832031 172.230469 114.609375 172.519531 114.25 C 172.804688 113.890625 172.933594 113.441406 172.882812 112.988281 C 172.78125 112.058594 172.769531 111.089844 172.816406 110.460938 C 175.652344 110.402344 183.285156 110.195312 184.90625 110.152344 L 184.957031 110.148438 C 185.417969 110.136719 185.84375 109.945312 186.15625 109.613281 C 186.472656 109.28125 186.640625 108.84375 186.628906 108.382812 C 186.601562 107.449219 185.847656 106.714844 184.910156 106.714844 Z M 225.984375 106.550781 L 218.742188 106.386719 C 217.824219 106.386719 217.058594 107.140625 217.035156 108.066406 C 217.015625 109.011719 217.765625 109.800781 218.714844 109.820312 L 225.945312 109.984375 C 226.871094 109.984375 227.640625 109.230469 227.660156 108.308594 C 227.683594 107.359375 226.929688 106.574219 225.984375 106.550781 Z M 208.789062 148.210938 C 199.957031 146.386719 193.363281 150.546875 191.9375 154.570312 C 190.617188 158.292969 191.074219 177.265625 191.148438 180.046875 C 191.15625 180.265625 191.160156 180.390625 191.160156 180.390625 L 210.824219 180.378906 L 218.253906 180.375 C 218.253906 180.375 219.035156 175.589844 218.515625 164.949219 C 217.996094 154.308594 217.78125 150.070312 208.789062 148.210938 Z M 246.207031 81.269531 C 246.375 87.273438 246.648438 102.460938 245.265625 104.949219 C 243.539062 108.0625 217.089844 105.121094 211.210938 105.121094 C 205.335938 105.121094 170.933594 106.332031 168.859375 105.46875 C 167.273438 104.808594 168.011719 90.535156 168.445312 83.03125 C 168.585938 80.636719 170.65625 78.707031 173.050781 78.742188 C 182.203125 78.875 203.109375 78.617188 211.558594 78.480469 C 220.191406 78.34375 237.355469 78.652344 243.699219 78.777344 C 245.066406 78.804688 246.167969 79.902344 246.207031 81.269531 " fill-opacity="1" fill-rule="nonzero"/></g><g clip-path="url(#id3)"><path fill="#ef3220" d="M 242.109375 134.660156 C 240.554688 134.53125 184.675781 133.753906 174.824219 133.753906 C 164.96875 133.753906 167.175781 139.980469 167.175781 146.855469 C 167.175781 153.734375 167.648438 165.410156 167.820312 173.988281 C 167.949219 180.347656 174.304688 179.941406 174.304688 179.941406 C 174.304688 179.941406 183.074219 179.984375 191.148438 180.046875 C 191.074219 177.265625 190.617188 158.292969 191.9375 154.570312 C 193.363281 150.546875 199.957031 146.386719 208.789062 148.210938 C 217.78125 150.070312 217.996094 154.308594 218.515625 164.949219 C 219.035156 175.589844 218.253906 180.375 218.253906 180.375 L 210.824219 180.378906 C 221.96875 180.605469 242.796875 180.761719 244.183594 179.078125 C 246 176.871094 244.835938 163.984375 244.835938 150.492188 C 244.835938 136.996094 243.667969 134.792969 242.109375 134.660156 Z M 266.59375 174.277344 L 250.242188 114.558594 C 250.105469 114.050781 249.582031 113.753906 249.074219 113.890625 C 248.566406 114.03125 248.265625 114.554688 248.40625 115.066406 L 264.753906 174.78125 C 264.871094 175.203125 265.253906 175.484375 265.671875 175.484375 C 265.753906 175.484375 265.839844 175.472656 265.925781 175.449219 C 266.433594 175.308594 266.734375 174.785156 266.59375 174.277344 Z M 287.984375 172.488281 L 265.78125 178.519531 C 264.351562 178.910156 262.433594 176.410156 261.488281 172.9375 L 246.851562 118.960938 C 245.914062 115.492188 246.304688 112.363281 247.734375 111.976562 L 269.941406 105.945312 C 271.367188 105.558594 273.21875 108.078125 274.230469 111.527344 C 282.960938 141.308594 288.867188 165.503906 288.867188 165.503906 C 289.808594 168.972656 289.414062 172.101562 287.984375 172.488281 Z M 201.75 57.304688 C 202.695312 57.304688 203.464844 56.535156 203.464844 55.585938 C 203.464844 54.640625 202.695312 53.867188 201.75 53.867188 C 190.085938 53.867188 189.226562 54.726562 188.765625 55.191406 C 188.230469 55.726562 187.417969 56.535156 187.9375 71.191406 C 187.96875 72.121094 188.722656 72.847656 189.652344 72.847656 L 189.710938 72.847656 C 190.65625 72.8125 191.402344 72.015625 191.367188 71.070312 C 191.160156 65.203125 191.175781 59.671875 191.390625 57.75 C 193.03125 57.496094 197.375 57.304688 201.75 57.304688 Z M 187.570312 51.0625 C 185.109375 47.167969 198.042969 27.273438 204.6875 22.128906 C 209.320312 18.539062 212.984375 24.722656 215.1875 28.746094 C 217.390625 32.769531 224.394531 48.984375 222.96875 51.710938 C 221.539062 54.433594 190.035156 54.953125 187.570312 51.0625 " fill-opacity="1" fill-rule="nonzero"/></g><g clip-path="url(#id4)"><path fill="#f8e505" d="M 202.703125 55.585938 C 202.703125 55.058594 202.277344 54.632812 201.75 54.632812 C 190.398438 54.632812 189.574219 55.457031 189.304688 55.730469 C 189 56.035156 188.195312 56.839844 188.699219 71.164062 C 188.714844 71.675781 189.140625 72.085938 189.652344 72.085938 C 189.660156 72.085938 189.671875 72.085938 189.683594 72.082031 C 190.210938 72.066406 190.625 71.621094 190.605469 71.09375 C 190.394531 65.1875 190.386719 58.582031 190.71875 57.109375 C 191.984375 56.757812 197.257812 56.539062 201.75 56.539062 C 202.277344 56.539062 202.703125 56.113281 202.703125 55.585938 Z M 223.441406 78.609375 C 222.40625 79.128906 202.4375 79.519531 199.585938 79.519531 C 196.734375 79.519531 187.140625 80.296875 186.363281 78.351562 C 185.582031 76.40625 186.492188 61.484375 186.492188 59.539062 C 186.492188 57.59375 185.972656 53.050781 187.65625 52.402344 C 187.65625 52.402344 221.757812 52.402344 222.921875 53.050781 C 224.089844 53.699219 224.476562 78.089844 223.441406 78.609375 Z M 157.648438 151.65625 C 158.59375 164.433594 157.648438 174.683594 157.648438 174.683594 C 157.648438 176.164062 156.449219 177.363281 154.96875 177.363281 L 131.960938 177.363281 C 130.480469 177.363281 129.28125 176.164062 129.28125 174.683594 L 129.28125 151.65625 C 129.28125 150.175781 130.484375 149.074219 131.960938 148.976562 C 143.9375 148.1875 154.96875 148.976562 154.96875 148.976562 C 156.449219 148.976562 157.539062 150.179688 157.648438 151.65625 " fill-opacity="1" fill-rule="nonzero"/></g><path fill="#2b3786" d="M 185.863281 108.40625 C 185.851562 107.886719 185.425781 107.476562 184.910156 107.476562 C 184.902344 107.476562 184.894531 107.476562 184.882812 107.476562 C 184.765625 107.480469 172.949219 107.804688 171.832031 107.804688 C 171.433594 107.804688 171.066406 107.972656 170.789062 108.28125 C 169.925781 109.246094 170.066406 111.828125 170.230469 113.28125 C 170.285156 113.769531 170.695312 114.128906 171.175781 114.128906 C 171.210938 114.128906 171.246094 114.128906 171.285156 114.125 C 171.808594 114.066406 172.183594 113.59375 172.125 113.070312 C 171.980469 111.75 172 110.28125 172.160156 109.710938 C 174.355469 109.675781 184.480469 109.398438 184.9375 109.386719 C 185.460938 109.371094 185.878906 108.933594 185.863281 108.40625 Z M 195.972656 133.800781 C 194.070312 134.492188 172.113281 134.234375 172.113281 134.234375 C 168.3125 133.886719 168.425781 130.339844 168.425781 128.609375 C 168.425781 126.878906 167.648438 108.796875 168.859375 106.894531 C 170.070312 104.992188 185.425781 104.5625 191.476562 104.910156 C 197.527344 105.257812 197.296875 107.332031 197.640625 113.214844 C 197.988281 119.097656 197.871094 133.109375 195.972656 133.800781 Z M 171.609375 93.332031 C 171.652344 93.332031 171.695312 93.332031 171.738281 93.324219 C 172.257812 93.253906 172.625 92.777344 172.554688 92.253906 C 171.945312 87.660156 172.277344 83.085938 173.230469 82.835938 C 175.324219 82.296875 186.292969 82.425781 190.34375 82.519531 C 190.871094 82.535156 191.308594 82.117188 191.320312 81.589844 C 191.332031 81.0625 190.914062 80.625 190.386719 80.613281 C 188.871094 80.578125 175.484375 80.285156 172.753906 80.988281 C 169.597656 81.804688 170.242188 89.3125 170.664062 92.503906 C 170.726562 92.984375 171.136719 93.332031 171.609375 93.332031 " fill-opacity="1" fill-rule="nonzero"/><path fill="#51b59f" d="M 151.203125 151.703125 C 151.15625 152.230469 150.695312 152.617188 150.171875 152.574219 C 142.6875 151.945312 134.066406 151.996094 133.015625 153.0625 C 132.515625 155.242188 132.402344 164.785156 132.402344 168.3125 C 132.402344 168.839844 131.976562 169.265625 131.449219 169.265625 C 130.921875 169.265625 130.496094 168.839844 130.496094 168.3125 C 130.496094 167.777344 130.503906 155.238281 131.179688 152.539062 C 131.484375 151.308594 132.941406 150.179688 141.433594 150.261719 C 145.871094 150.300781 150.285156 150.667969 150.332031 150.671875 C 150.855469 150.71875 151.246094 151.179688 151.203125 151.703125 Z M 225.945312 109.222656 C 225.9375 109.222656 225.933594 109.222656 225.925781 109.222656 L 218.730469 109.058594 C 218.203125 109.046875 217.789062 108.609375 217.796875 108.082031 C 217.808594 107.554688 218.253906 107.132812 218.773438 107.148438 L 225.96875 107.316406 C 226.496094 107.324219 226.910156 107.761719 226.898438 108.289062 C 226.886719 108.808594 226.460938 109.222656 225.945312 109.222656 Z M 244.402344 106.503906 C 242.5 105.296875 223.140625 105.46875 221.410156 105.46875 C 219.683594 105.46875 216.136719 104.949219 215.792969 108.753906 C 215.792969 108.753906 215.535156 130.726562 216.226562 132.628906 C 216.917969 134.53125 230.917969 135.050781 236.796875 134.703125 C 242.671875 134.359375 244.746094 134.183594 245.09375 128.128906 C 245.4375 122.074219 246.304688 107.71875 244.402344 106.503906 " fill-opacity="1" fill-rule="nonzero"/><g clip-path="url(#id5)"><path fill="#51b59f" d="M 0 195.164062 L 418.5 195.164062 L 418.5 296.984375 L 0 296.984375 Z M 0 195.164062 " fill-opacity="1" fill-rule="nonzero"/></g><g fill="#baf1f1" fill-opacity="1"><g transform="translate(131.507412, 241.10874)"><g><path d="M 6.671875 -5.4375 L 16.140625 -5.4375 C 16.609375 -5.4375 16.957031 -5.421875 17.1875 -5.390625 C 17.425781 -5.359375 17.703125 -5.265625 18.015625 -5.109375 C 18.566406 -4.816406 18.84375 -4.015625 18.84375 -2.703125 C 18.84375 -1.265625 18.460938 -0.425781 17.703125 -0.1875 C 17.359375 -0.0625 16.828125 0 16.109375 0 L 3.9375 0 C 2.5 0 1.65625 -0.390625 1.40625 -1.171875 C 1.289062 -1.492188 1.234375 -2.015625 1.234375 -2.734375 L 1.234375 -19.828125 C 1.234375 -20.867188 1.425781 -21.578125 1.8125 -21.953125 C 2.195312 -22.335938 2.9375 -22.53125 4.03125 -22.53125 L 16.140625 -22.53125 C 16.609375 -22.53125 16.957031 -22.515625 17.1875 -22.484375 C 17.425781 -22.453125 17.703125 -22.351562 18.015625 -22.1875 C 18.566406 -21.90625 18.84375 -21.109375 18.84375 -19.796875 C 18.84375 -18.359375 18.460938 -17.515625 17.703125 -17.265625 C 17.359375 -17.148438 16.828125 -17.09375 16.109375 -17.09375 L 6.671875 -17.09375 L 6.671875 -13.984375 L 12.75 -13.984375 C 13.226562 -13.984375 13.582031 -13.96875 13.8125 -13.9375 C 14.050781 -13.90625 14.320312 -13.804688 14.625 -13.640625 C 15.175781 -13.359375 15.453125 -12.5625 15.453125 -11.25 C 15.453125 -9.8125 15.066406 -8.972656 14.296875 -8.734375 C 13.941406 -8.609375 13.40625 -8.546875 12.6875 -8.546875 L 6.671875 -8.546875 Z M 6.671875 -5.4375 "/></g></g></g><g fill="#baf1f1" fill-opacity="1"><g transform="translate(151.112036, 241.10874)"><g><path d="M 12.453125 -8.109375 L 15.859375 -4.671875 C 16.597656 -3.929688 16.96875 -3.300781 16.96875 -2.78125 C 16.96875 -2.257812 16.597656 -1.632812 15.859375 -0.90625 C 15.117188 -0.175781 14.492188 0.1875 13.984375 0.1875 C 13.472656 0.1875 12.847656 -0.179688 12.109375 -0.921875 L 8.734375 -4.328125 L 5.3125 -0.921875 C 4.570312 -0.179688 3.953125 0.1875 3.453125 0.1875 C 2.953125 0.1875 2.328125 -0.175781 1.578125 -0.90625 C 0.835938 -1.632812 0.46875 -2.257812 0.46875 -2.78125 C 0.46875 -3.300781 0.832031 -3.929688 1.5625 -4.671875 L 4.984375 -8.109375 L 1.5625 -11.5625 C 0.832031 -12.289062 0.46875 -12.914062 0.46875 -13.4375 C 0.46875 -13.96875 0.835938 -14.597656 1.578125 -15.328125 C 2.328125 -16.066406 2.953125 -16.4375 3.453125 -16.4375 C 3.953125 -16.4375 4.570312 -16.070312 5.3125 -15.34375 L 8.734375 -11.890625 L 12.109375 -15.34375 C 12.847656 -16.070312 13.472656 -16.4375 13.984375 -16.4375 C 14.492188 -16.4375 15.117188 -16.066406 15.859375 -15.328125 C 16.597656 -14.597656 16.96875 -13.96875 16.96875 -13.4375 C 16.96875 -12.914062 16.597656 -12.289062 15.859375 -11.5625 Z M 12.453125 -8.109375 "/></g></g></g><g fill="#baf1f1" fill-opacity="1"><g transform="translate(168.534954, 241.10874)"><g><path d="M 10.640625 -10.75 L 8.640625 -10.875 L 8.640625 -6.640625 C 8.640625 -6.085938 8.722656 -5.6875 8.890625 -5.4375 C 9.066406 -5.195312 9.394531 -5.078125 9.875 -5.078125 C 10.363281 -5.078125 10.734375 -5.0625 10.984375 -5.03125 C 11.242188 -5 11.515625 -4.898438 11.796875 -4.734375 C 12.273438 -4.460938 12.515625 -3.773438 12.515625 -2.671875 C 12.515625 -1.378906 12.222656 -0.59375 11.640625 -0.3125 C 11.335938 -0.164062 11.066406 -0.078125 10.828125 -0.046875 C 10.597656 -0.015625 10.253906 0 9.796875 0 C 7.671875 0 6.050781 -0.476562 4.9375 -1.4375 C 3.832031 -2.40625 3.28125 -4.035156 3.28125 -6.328125 L 3.28125 -10.875 C 2.894531 -10.8125 2.476562 -10.78125 2.03125 -10.78125 C 1.582031 -10.78125 1.207031 -10.953125 0.90625 -11.296875 C 0.613281 -11.648438 0.46875 -12.25 0.46875 -13.09375 C 0.46875 -13.9375 0.515625 -14.546875 0.609375 -14.921875 C 0.710938 -15.296875 0.859375 -15.566406 1.046875 -15.734375 C 1.367188 -16.003906 1.78125 -16.140625 2.28125 -16.140625 L 3.28125 -16.015625 L 3.28125 -19.171875 C 3.28125 -19.648438 3.296875 -20 3.328125 -20.21875 C 3.359375 -20.445312 3.457031 -20.691406 3.625 -20.953125 C 3.894531 -21.472656 4.6875 -21.734375 6 -21.734375 C 7.382812 -21.734375 8.210938 -21.351562 8.484375 -20.59375 C 8.585938 -20.257812 8.640625 -19.738281 8.640625 -19.03125 L 8.640625 -16.015625 C 9.535156 -16.097656 10.210938 -16.140625 10.671875 -16.140625 C 11.140625 -16.140625 11.488281 -16.125 11.71875 -16.09375 C 11.957031 -16.0625 12.234375 -15.960938 12.546875 -15.796875 C 13.078125 -15.523438 13.34375 -14.738281 13.34375 -13.4375 C 13.34375 -12.144531 13.066406 -11.351562 12.515625 -11.0625 C 12.203125 -10.914062 11.925781 -10.828125 11.6875 -10.796875 C 11.457031 -10.765625 11.109375 -10.75 10.640625 -10.75 Z M 10.640625 -10.75 "/></g></g></g><g fill="#baf1f1" fill-opacity="1"><g transform="translate(182.331935, 241.10874)"><g><path d="M 16.84375 -10.03125 C 16.84375 -8.769531 16.53125 -7.835938 15.90625 -7.234375 C 15.28125 -6.628906 14.585938 -6.328125 13.828125 -6.328125 L 6.546875 -6.328125 C 6.546875 -5.753906 6.882812 -5.269531 7.5625 -4.875 C 8.238281 -4.488281 8.914062 -4.296875 9.59375 -4.296875 C 10.78125 -4.296875 11.710938 -4.421875 12.390625 -4.671875 L 12.71875 -4.796875 C 13.21875 -5.015625 13.628906 -5.125 13.953125 -5.125 C 14.609375 -5.125 15.171875 -4.664062 15.640625 -3.75 C 15.910156 -3.195312 16.046875 -2.722656 16.046875 -2.328125 C 16.046875 -0.503906 13.863281 0.40625 9.5 0.40625 C 7.976562 0.40625 6.628906 0.144531 5.453125 -0.375 C 4.273438 -0.90625 3.359375 -1.597656 2.703125 -2.453125 C 1.410156 -4.117188 0.765625 -5.972656 0.765625 -8.015625 C 0.765625 -10.597656 1.597656 -12.660156 3.265625 -14.203125 C 4.941406 -15.753906 7.03125 -16.53125 9.53125 -16.53125 C 12.375 -16.53125 14.460938 -15.523438 15.796875 -13.515625 C 16.492188 -12.453125 16.84375 -11.289062 16.84375 -10.03125 Z M 10.359375 -9.125 C 11.140625 -9.125 11.53125 -9.453125 11.53125 -10.109375 C 11.53125 -10.578125 11.347656 -10.953125 10.984375 -11.234375 C 10.628906 -11.523438 10.117188 -11.671875 9.453125 -11.671875 C 8.785156 -11.671875 8.125 -11.398438 7.46875 -10.859375 C 6.8125 -10.316406 6.484375 -9.738281 6.484375 -9.125 Z M 10.359375 -9.125 "/></g></g></g><g fill="#baf1f1" fill-opacity="1"><g transform="translate(199.93922, 241.10874)"><g><path d="M 10.234375 -16.203125 C 12.285156 -16.203125 13.988281 -15.414062 15.34375 -13.84375 C 16.707031 -12.28125 17.390625 -10.367188 17.390625 -8.109375 L 17.390625 -2.703125 C 17.390625 -2.234375 17.375 -1.878906 17.34375 -1.640625 C 17.3125 -1.410156 17.226562 -1.148438 17.09375 -0.859375 C 16.800781 -0.304688 16 -0.03125 14.6875 -0.03125 C 13.238281 -0.03125 12.398438 -0.410156 12.171875 -1.171875 C 12.046875 -1.515625 11.984375 -2.035156 11.984375 -2.734375 L 11.984375 -8.140625 C 11.984375 -8.984375 11.742188 -9.640625 11.265625 -10.109375 C 10.785156 -10.578125 10.140625 -10.8125 9.328125 -10.8125 C 8.515625 -10.8125 7.859375 -10.566406 7.359375 -10.078125 C 6.859375 -9.585938 6.609375 -8.941406 6.609375 -8.140625 L 6.609375 -2.703125 C 6.609375 -2.234375 6.59375 -1.878906 6.5625 -1.640625 C 6.53125 -1.410156 6.429688 -1.148438 6.265625 -0.859375 C 6.003906 -0.304688 5.21875 -0.03125 3.90625 -0.03125 C 2.613281 -0.03125 1.820312 -0.304688 1.53125 -0.859375 C 1.394531 -1.171875 1.3125 -1.441406 1.28125 -1.671875 C 1.25 -1.910156 1.234375 -2.265625 1.234375 -2.734375 L 1.234375 -13.609375 C 1.234375 -14.066406 1.25 -14.410156 1.28125 -14.640625 C 1.3125 -14.878906 1.40625 -15.140625 1.5625 -15.421875 C 1.851562 -15.941406 2.644531 -16.203125 3.9375 -16.203125 C 5.1875 -16.203125 5.953125 -15.960938 6.234375 -15.484375 C 6.441406 -15.140625 6.546875 -14.722656 6.546875 -14.234375 C 6.628906 -14.367188 6.8125 -14.570312 7.09375 -14.84375 C 7.382812 -15.113281 7.660156 -15.328125 7.921875 -15.484375 C 8.617188 -15.960938 9.390625 -16.203125 10.234375 -16.203125 Z M 10.234375 -16.203125 "/></g></g></g><g fill="#baf1f1" fill-opacity="1"><g transform="translate(218.560539, 241.10874)"><g><path d="M 1.359375 -1.4375 C 0.960938 -1.6875 0.765625 -2.078125 0.765625 -2.609375 C 0.765625 -3.140625 1.15625 -3.953125 1.9375 -5.046875 C 2.164062 -5.390625 2.53125 -5.5625 3.03125 -5.5625 C 3.53125 -5.5625 4.207031 -5.3125 5.0625 -4.8125 C 5.925781 -4.3125 6.707031 -4.0625 7.40625 -4.0625 C 8.65625 -4.0625 9.28125 -4.304688 9.28125 -4.796875 C 9.28125 -5.179688 8.59375 -5.46875 7.21875 -5.65625 C 5.925781 -5.84375 4.644531 -6.320312 3.375 -7.09375 C 2.78125 -7.46875 2.289062 -8.046875 1.90625 -8.828125 C 1.519531 -9.617188 1.328125 -10.554688 1.328125 -11.640625 C 1.328125 -14.878906 3.546875 -16.5 7.984375 -16.5 C 9.441406 -16.5 10.941406 -16.148438 12.484375 -15.453125 C 13.191406 -15.128906 13.546875 -14.722656 13.546875 -14.234375 C 13.546875 -13.742188 13.320312 -13.140625 12.875 -12.421875 C 12.425781 -11.703125 11.96875 -11.34375 11.5 -11.34375 C 11.25 -11.34375 10.789062 -11.492188 10.125 -11.796875 C 9.457031 -12.109375 8.734375 -12.265625 7.953125 -12.265625 C 6.742188 -12.265625 6.140625 -12.039062 6.140625 -11.59375 C 6.140625 -10.976562 6.835938 -10.578125 8.234375 -10.390625 C 9.585938 -10.242188 10.898438 -9.851562 12.171875 -9.21875 C 12.765625 -8.9375 13.257812 -8.441406 13.65625 -7.734375 C 14.0625 -7.023438 14.265625 -6.132812 14.265625 -5.0625 C 14.265625 -4 14.0625 -3.09375 13.65625 -2.34375 C 13.257812 -1.601562 12.703125 -1.046875 11.984375 -0.671875 C 10.671875 -0.0351562 9.023438 0.28125 7.046875 0.28125 C 5.078125 0.28125 3.179688 -0.289062 1.359375 -1.4375 Z M 1.359375 -1.4375 "/></g></g></g><g fill="#baf1f1" fill-opacity="1"><g transform="translate(233.586649, 241.10874)"><g><path d="M 1.234375 -13.5 C 1.234375 -13.96875 1.25 -14.316406 1.28125 -14.546875 C 1.3125 -14.785156 1.394531 -15.054688 1.53125 -15.359375 C 1.820312 -15.898438 2.625 -16.171875 3.9375 -16.171875 C 4.914062 -16.171875 5.613281 -15.992188 6.03125 -15.640625 C 6.375 -15.359375 6.554688 -14.921875 6.578125 -14.328125 C 6.597656 -14.117188 6.609375 -13.820312 6.609375 -13.4375 L 6.609375 -2.671875 C 6.609375 -2.203125 6.59375 -1.847656 6.5625 -1.609375 C 6.53125 -1.378906 6.429688 -1.109375 6.265625 -0.796875 C 6.003906 -0.265625 5.21875 0 3.90625 0 C 2.613281 0 1.820312 -0.273438 1.53125 -0.828125 C 1.394531 -1.140625 1.3125 -1.40625 1.28125 -1.625 C 1.25 -1.851562 1.234375 -2.210938 1.234375 -2.703125 Z M 6.28125 -19.1875 C 6.125 -18.894531 5.851562 -18.6875 5.46875 -18.5625 C 5.082031 -18.4375 4.566406 -18.375 3.921875 -18.375 C 3.273438 -18.375 2.753906 -18.4375 2.359375 -18.5625 C 1.972656 -18.6875 1.703125 -18.898438 1.546875 -19.203125 C 1.398438 -19.515625 1.3125 -19.785156 1.28125 -20.015625 C 1.25 -20.253906 1.234375 -20.609375 1.234375 -21.078125 C 1.234375 -21.554688 1.25 -21.910156 1.28125 -22.140625 C 1.3125 -22.378906 1.394531 -22.640625 1.53125 -22.921875 C 1.820312 -23.472656 2.625 -23.75 3.9375 -23.75 C 5.226562 -23.75 6.003906 -23.472656 6.265625 -22.921875 C 6.429688 -22.617188 6.53125 -22.347656 6.5625 -22.109375 C 6.59375 -21.878906 6.609375 -21.523438 6.609375 -21.046875 C 6.609375 -20.578125 6.59375 -20.222656 6.5625 -19.984375 C 6.53125 -19.753906 6.4375 -19.488281 6.28125 -19.1875 Z M 6.28125 -19.1875 "/></g></g></g><g fill="#baf1f1" fill-opacity="1"><g transform="translate(241.422358, 241.10874)"><g><path d="M 10.109375 -16.171875 C 11.929688 -16.171875 13.601562 -15.359375 15.125 -13.734375 C 16.65625 -12.117188 17.421875 -10.238281 17.421875 -8.09375 C 17.421875 -5.957031 16.660156 -4.082031 15.140625 -2.46875 C 13.628906 -0.863281 12.003906 -0.0625 10.265625 -0.0625 C 8.523438 -0.0625 7.285156 -0.550781 6.546875 -1.53125 C 6.378906 -0.53125 5.5 -0.03125 3.90625 -0.03125 C 2.613281 -0.03125 1.820312 -0.304688 1.53125 -0.859375 C 1.394531 -1.171875 1.3125 -1.441406 1.28125 -1.671875 C 1.25 -1.910156 1.234375 -2.265625 1.234375 -2.734375 L 1.234375 -21.078125 C 1.234375 -21.554688 1.25 -21.910156 1.28125 -22.140625 C 1.3125 -22.378906 1.394531 -22.640625 1.53125 -22.921875 C 1.820312 -23.472656 2.625 -23.75 3.9375 -23.75 C 5.226562 -23.75 6.003906 -23.472656 6.265625 -22.921875 C 6.429688 -22.617188 6.53125 -22.347656 6.5625 -22.109375 C 6.59375 -21.878906 6.609375 -21.523438 6.609375 -21.046875 L 6.609375 -14.65625 C 7.429688 -15.664062 8.597656 -16.171875 10.109375 -16.171875 Z M 7.421875 -6.234375 C 7.921875 -5.679688 8.550781 -5.40625 9.3125 -5.40625 C 10.070312 -5.40625 10.71875 -5.679688 11.25 -6.234375 C 11.78125 -6.785156 12.046875 -7.398438 12.046875 -8.078125 C 12.046875 -8.753906 11.800781 -9.375 11.3125 -9.9375 C 10.820312 -10.5 10.164062 -10.78125 9.34375 -10.78125 C 8.519531 -10.78125 7.867188 -10.492188 7.390625 -9.921875 C 6.910156 -9.347656 6.671875 -8.726562 6.671875 -8.0625 C 6.671875 -7.394531 6.921875 -6.785156 7.421875 -6.234375 Z M 7.421875 -6.234375 "/></g></g></g><g fill="#baf1f1" fill-opacity="1"><g transform="translate(259.61348, 241.10874)"><g><path d="M 1.234375 -21.109375 C 1.234375 -21.585938 1.25 -21.941406 1.28125 -22.171875 C 1.3125 -22.410156 1.394531 -22.679688 1.53125 -22.984375 C 1.820312 -23.535156 2.625 -23.8125 3.9375 -23.8125 C 5.1875 -23.8125 5.960938 -23.535156 6.265625 -22.984375 C 6.429688 -22.679688 6.53125 -22.40625 6.5625 -22.15625 C 6.59375 -21.914062 6.609375 -21.554688 6.609375 -21.078125 L 6.609375 -6.859375 C 6.609375 -6.117188 6.671875 -5.648438 6.796875 -5.453125 C 6.921875 -5.253906 7.191406 -5.15625 7.609375 -5.15625 C 8.023438 -5.15625 8.304688 -5.140625 8.453125 -5.109375 C 8.597656 -5.085938 8.769531 -5.003906 8.96875 -4.859375 C 9.382812 -4.585938 9.59375 -3.859375 9.59375 -2.671875 C 9.59375 -1.378906 9.382812 -0.59375 8.96875 -0.3125 C 8.4375 0.0625 7.164062 0.125 5.15625 -0.125 C 3.582031 -0.332031 2.5625 -0.851562 2.09375 -1.6875 C 1.519531 -2.695312 1.234375 -4.296875 1.234375 -6.484375 Z M 1.234375 -21.109375 "/></g></g></g><g fill="#baf1f1" fill-opacity="1"><g transform="translate(269.661613, 241.10874)"><g><path d="M 16.84375 -10.03125 C 16.84375 -8.769531 16.53125 -7.835938 15.90625 -7.234375 C 15.28125 -6.628906 14.585938 -6.328125 13.828125 -6.328125 L 6.546875 -6.328125 C 6.546875 -5.753906 6.882812 -5.269531 7.5625 -4.875 C 8.238281 -4.488281 8.914062 -4.296875 9.59375 -4.296875 C 10.78125 -4.296875 11.710938 -4.421875 12.390625 -4.671875 L 12.71875 -4.796875 C 13.21875 -5.015625 13.628906 -5.125 13.953125 -5.125 C 14.609375 -5.125 15.171875 -4.664062 15.640625 -3.75 C 15.910156 -3.195312 16.046875 -2.722656 16.046875 -2.328125 C 16.046875 -0.503906 13.863281 0.40625 9.5 0.40625 C 7.976562 0.40625 6.628906 0.144531 5.453125 -0.375 C 4.273438 -0.90625 3.359375 -1.597656 2.703125 -2.453125 C 1.410156 -4.117188 0.765625 -5.972656 0.765625 -8.015625 C 0.765625 -10.597656 1.597656 -12.660156 3.265625 -14.203125 C 4.941406 -15.753906 7.03125 -16.53125 9.53125 -16.53125 C 12.375 -16.53125 14.460938 -15.523438 15.796875 -13.515625 C 16.492188 -12.453125 16.84375 -11.289062 16.84375 -10.03125 Z M 10.359375 -9.125 C 11.140625 -9.125 11.53125 -9.453125 11.53125 -10.109375 C 11.53125 -10.578125 11.347656 -10.953125 10.984375 -11.234375 C 10.628906 -11.523438 10.117188 -11.671875 9.453125 -11.671875 C 8.785156 -11.671875 8.125 -11.398438 7.46875 -10.859375 C 6.8125 -10.316406 6.484375 -9.738281 6.484375 -9.125 Z M 10.359375 -9.125 "/></g></g></g></svg>